:SAMPLES-PER-SECOND 30
:FULLY-SPECIFIED
:DEGREES
491
root  84.3219 37.1992 0.193763 16.9553 -68.5084 -13.4937
RightUpLeg  -27.2078 -8.14983 -1.11777
RightLeg  20.3346 -4.28241 -0.349094
RightFoot  -6.04678 -0.287662 5.30138
RightToes  -8.3237e-009 0 -3.6325e-017
Spine  4.73541 -1.52549 6.07234
Spine1  3.04216 -2.13289 4.42363
HEad  -13.1366 11.7882 -1.92998
LeftShoulder1  -0.574516 5.03194 -31.4506
LeftArm  -3.36481 7.71826 -40.1249
LeftForeArm  26.0494 -13.2339 -6.73878
LeftHand  -0.0301342 7.78152 0.711228
RightShoulder  -1.11687 -6.52222 30.4712
RightArm  13.7173 -16.1464 41.6314
RightForeArm  15.7594 10.4221 6.13712
RightHand  -0.0780262 6.6589 -1.04387
LeftUpLeg  6.43356 7.17166 5.48422
LeftLeg  -3.09735 11.4114 -3.54207
LeftFoot  -22.2544 -9.72836 -84.4544
LeftToes  -1.18267e-011 3.61711e-011 9.57411e-011
492
root  84.0938 37.1793 0.207105 17.6808 -70.1514 -13.7597
RightUpLeg  -27.5536 -7.99291 -0.673411
RightLeg  21.0928 -4.63143 -0.554747
RightFoot  -4.71552 -0.314821 4.88614
RightToes  -8.3237e-009 0 -3.6325e-017
Spine  5.02224 -1.80715 5.66129
Spine1  2.22552 -2.52672 4.97567
HEad  -12.8021 12.0785 -2.19079
LeftShoulder1  -0.5326 4.91269 -31.656
LeftArm  -2.3428 7.35106 -41.0117
LeftForeArm  24.5279 -14.3993 -6.44952
LeftHand  -0.0101473 8.02243 1.37054
RightShoulder  -1.1134 -6.51984 30.3857
RightArm  13.5181 -17.35 41.6539
RightForeArm  16.6579 11.1315 5.82631
RightHand  0.0356204 4.8299 0.0726363
LeftUpLeg  6.52755 6.84943 5.08225
LeftLeg  -3.05448 12.8286 -3.51504
LeftFoot  -22.2659 -9.90718 -85.4322
LeftToes  -1.18267e-011 3.61711e-011 9.57411e-011
493
root  83.7209 37.2098 0.197619 18.3257 -70.4286 -14.7772
RightUpLeg  -26.9124 -7.52899 -0.155937
RightLeg  21.4868 -4.81262 -0.846207
RightFoot  -3.66824 -0.295485 4.01761
RightToes  -8.3237e-009 0 -3.6325e-017
Spine  5.06844 -2.43465 5.38496
Spine1  2.72274 -3.42773 6.5251
HEad  -12.5293 12.2041 -2.77403
LeftShoulder1  -0.553132 4.96015 -31.8355
LeftArm  -0.128606 6.46581 -42.0644
LeftForeArm  23.7904 -15.6827 -6.21099
LeftHand  -0.0275789 7.65017 0.698707
RightShoulder  -1.11824 -6.53695 30.3374
RightArm  13.8385 -18.1155 41.6148
RightForeArm  15.1875 11.7625 5.76666
RightHand  -0.0476045 4.28373 -0.840339
LeftUpLeg  7.52713 7.11476 5.82262
LeftLeg  -3.00934 12.5284 -3.56751
LeftFoot  -21.9943 -9.80776 -86.3076
LeftToes  -1.18267e-011 3.61711e-011 9.57411e-011
494
root  83.3436 37.2346 0.173313 19.475 -71.6118 -15.7186
RightUpLeg  -27.0066 -7.02023 0.312847
RightLeg  21.5913 -3.30292 -0.464813
RightFoot  -2.04056 -0.323986 3.81109
RightToes  -8.3237e-009 0 -3.6325e-017
Spine  5.09087 -2.66448 5.43323
Spine1  2.64077 -3.70664 6.79369
HEad  -12.4978 12.7365 -3.27534
LeftShoulder1  -0.559 4.97768 -31.7738
LeftArm  3.33123 6.10622 -43.1052
LeftForeArm  20.5983 -18.1531 -5.46639
LeftHand  -0.0243947 8.31876 0.753285
RightShoulder  -1.07836 -6.45004 30.0666
RightArm  14.2945 -18.4089 41.825
RightForeArm  14.4866 12.3528 5.73689
RightHand  -0.0653925 4.84787 -1.0372
LeftUpLeg  8.06437 7.36131 6.03057
LeftLeg  -3.04531 13.516 -3.7056
LeftFoot  -21.5582 -9.55902 -87.2349
LeftToes  -1.18267e-011 3.61711e-011 9.57411e-011
495
root  82.8665 37.2741 0.103591 20.5215 -72.4113 -16.8175
RightUpLeg  -26.7003 -6.70147 0.948784
RightLeg  22.1641 -2.68108 -0.368801
RightFoot  -2.21895 -0.235248 2.74867
RightToes  -8.3237e-009 0 -3.6325e-017
Spine  5.08221 -2.93624 5.6587
Spine1  2.5821 -3.94247 6.86785
HEad  -12.192 13.0563 -3.73195
LeftShoulder1  -0.470237 4.74976 -31.6085
LeftArm  5.16767 5.91335 -43.9955
LeftForeArm  18.7894 -19.9816 -4.78001
LeftHand  -0.00782859 8.60626 1.26519
RightShoulder  -1.06347 -6.41804 29.9527
RightArm  14.5421 -18.2091 42.0552
RightForeArm  15.053 12.553 5.72833
RightHand  -0.0390778 3.63451 -0.749234
LeftUpLeg  8.95913 7.62691 6.52303
LeftLeg  -2.98464 14.1125 -3.56097
LeftFoot  -21.3643 -9.40905 -87.4398
LeftToes  -1.18267e-011 3.61711e-011 9.57411e-011
496
root  82.3576 37.2871 0.0157731 21.2717 -73.1073 -17.8722
RightUpLeg  -26.1935 -6.79418 1.57172
RightLeg  23.0837 -1.84528 -0.128606
RightFoot  -3.04539 -0.143808 1.69473
RightToes  -8.3237e-009 0 -3.6325e-017
Spine  5.42115 -3.20263 5.83432
Spine1  2.39467 -4.17584 7.18975
HEad  -12.1393 13.2783 -4.42692
LeftShoulder1  -0.41971 4.60925 -31.8266
LeftArm  6.53299 5.66483 -44.446
LeftForeArm  18.2391 -21.6759 -4.29154
LeftHand  -0.030321 7.23468 0.574114
RightShoulder  -1.02888 -6.33696 29.7702
RightArm  14.899 -17.6003 42.2953
RightForeArm  14.6288 12.6159 5.8289
RightHand  -0.0328341 5.64762 -0.682805
LeftUpLeg  10.0773 8.04389 7.23763
LeftLeg  -2.82244 13.9688 -3.39827
LeftFoot  -21.092 -9.35287 -88.672
LeftToes  -1.18267e-011 3.61711e-011 9.57411e-011
497
root  81.7748 37.2738 -0.0881068 23.4035 -74.0187 -20.2505
RightUpLeg  -25.7465 -6.68057 2.55546
RightLeg  24.0166 -0.991291 0.150936
RightFoot  -3.85525 -0.0830322 0.876317
RightToes  -8.3237e-009 0 -3.6325e-017
Spine  5.20209 -3.18646 6.60443
Spine1  2.79045 -4.08997 7.25
HEad  -11.9997 13.4821 -5.06874
LeftShoulder1  -0.438404 4.66013 -31.7732
LeftArm  7.87937 5.49782 -45.0234
LeftForeArm  17.7988 -23.578 -4.09832
LeftHand  -0.0245019 7.46374 0.883297
RightShoulder  -1.0286 -6.33527 29.7814
RightArm  15.4161 -17.0739 42.3472
RightForeArm  14.7292 13.6287 5.60463
RightHand  0.0773128 5.70698 0.431997
LeftUpLeg  11.1119 8.70934 8.65278
LeftLeg  -2.74143 13.0527 -3.34225
LeftFoot  -20.8189 -9.50136 -91.2314
LeftToes  -1.18267e-011 3.61711e-011 9.57411e-011
498
root  81.1178 37.3109 -0.230176 23.3214 -74.6045 -20.5996
RightUpLeg  -24.7524 -6.48974 2.99765
RightLeg  24.8573 -0.628002 0.0547533
RightFoot  -4.65788 -0.0550123 0.399658
RightToes  -8.3237e-009 0 -3.6325e-017
Spine  4.81585 -3.32022 6.66606
Spine1  3.50502 -4.2062 7.44632
HEad  -11.6054 13.4505 -5.769
LeftShoulder1  -0.450345 4.69008 -31.8233
LeftArm  8.45078 5.14385 -45.4522
LeftForeArm  18.7513 -24.5311 -4.25812
LeftHand  -0.0152193 6.77125 1.61682
RightShoulder  -1.02369 -6.33593 29.5995
RightArm  15.7506 -16.0467 42.8353
RightForeArm  14.4743 14.1621 5.53317
RightHand  0.00265515 3.91812 -0.26165
LeftUpLeg  12.5118 9.82024 9.33532
LeftLeg  -2.18152 13.4635 -3.18502
LeftFoot  -19.9535 -8.87104 -92.7866
LeftToes  -1.18267e-011 3.61711e-011 9.57411e-011
499
root  80.4327 37.3889 -0.426193 23.7034 -75.8756 -21.391
RightUpLeg  -23.4841 -5.80768 3.43058
RightLeg  25.1521 -0.0680313 0.0637856
RightFoot  -5.35214 0.0026991 -0.748042
RightToes  -8.3237e-009 0 -3.6325e-017
Spine  5.36049 -3.21817 7.0821
Spine1  2.50733 -3.7341 6.60727
HEad  -10.4809 13.2777 -6.06475
LeftShoulder1  -0.340784 4.40292 -31.7716
LeftArm  8.28128 5.91257 -45.0676
LeftForeArm  19.1141 -25.6218 -4.47776
LeftHand  -0.013442 6.99606 1.63926
RightShoulder  -0.999597 -6.26688 29.6239
RightArm  15.9626 -15.5574 42.8926
RightForeArm  13.0856 14.72 5.42994
RightHand  0.0619143 6.71932 0.269651
LeftUpLeg  13.3548 12.3376 9.93335
LeftLeg  0.478539 13.1038 -2.09557
LeftFoot  -19.3145 -8.33293 -93.6547
LeftToes  -1.18267e-011 3.61711e-011 9.57411e-011
500
root  79.7853 37.3067 -0.583945 25.2641 -76.2999 -23.2446
RightUpLeg  -22.9124 -5.48427 4.18184
RightLeg  26.515 0.0941846 0.0762192
RightFoot  -6.90372 0.00765502 -1.40834
RightToes  -8.3237e-009 0 -3.6325e-017
Spine  4.82168 -3.41762 8.47612
Spine1  3.1579 -3.67087 6.22255
HEad  -9.89042 13.7719 -6.34733
LeftShoulder1  -0.359914 4.45645 -31.6465
LeftArm  8.49131 6.04873 -45.0167
LeftForeArm  19.5583 -26.2773 -4.59742
LeftHand  -0.0138618 8.13453 1.2197
RightShoulder  -0.984118 -6.23113 29.5243
RightArm  16.7247 -14.2182 43.5021
RightForeArm  12.5178 15.4002 5.37613
RightHand  0.0671784 5.7023 0.329482
LeftUpLeg  12.5971 16.0662 11.4176
LeftLeg  4.69896 9.07468 -0.0915941
LeftFoot  -19.8545 -9.75899 -98.8059
LeftToes  -1.18267e-011 3.61711e-011 9.57411e-011
501
root  79.2707 37.1151 -0.729764 27.3326 -76.6223 -25.5311
RightUpLeg  -22.9749 -5.74909 5.00142
RightLeg  28.5393 0.653199 0.389859
RightFoot  -8.62075 -0.00751424 -2.13996
RightToes  -8.3237e-009 0 -3.6325e-017
Spine  5.28122 -3.63551 10.2731
Spine1  2.82535 -3.51199 6.11447
HEad  -9.61652 14.0714 -7.02672
LeftShoulder1  -0.340647 4.40434 -31.6921
LeftArm  7.83555 6.4306 -45.068
LeftForeArm  20.8295 -26.485 -4.57483
LeftHand  -0.019368 8.72849 0.924575
RightShoulder  -0.94482 -6.14651 29.1859
RightArm  17.8206 -12.9482 44.1673
RightForeArm  11.4931 16.6713 5.17733
RightHand  -0.0408071 3.99611 -0.753185
LeftUpLeg  10.1039 17.7023 12.3909
LeftLeg  11.1888 5.66822 1.79781
LeftFoot  -20.613 -11.9124 -105.471
LeftToes  -1.18267e-011 3.61711e-011 9.57411e-011
502
root  78.747 36.843 -0.897996 31.0224 -76.5838 -29.5825
RightUpLeg  -23.0321 -5.60948 6.3416
RightLeg  30.8995 0.735132 0.457064
RightFoot  -10.6283 -0.0536364 -2.7871
RightToes  -8.3237e-009 0 -3.6325e-017
Spine  5.65505 -3.82837 12.4471
Spine1  2.87707 -3.3135 6.29778
HEad  -9.48663 13.9188 -7.48928
LeftShoulder1  -0.311759 4.33263 -31.4808
LeftArm  6.04348 7.34634 -45.2024
LeftForeArm  21.4784 -26.4296 -4.52788
LeftHand  -0.0122789 8.38888 1.20267
RightShoulder  -0.940464 -6.14744 29.007
RightArm  19.109 -11.4404 44.525
RightForeArm  10.2952 18.0679 4.93661
RightHand  -0.0194031 4.33141 -0.512357
LeftUpLeg  6.98578 15.6574 13.0413
LeftLeg  18.226 7.33595 3.03117
LeftFoot  -20.2359 -14.1158 -117.171
LeftToes  -1.18267e-011 3.61711e-011 9.57411e-011
503
root  78.3228 36.251 -1.02545 38.0995 -75.6808 -37.1847
RightUpLeg  -24.071 -6.38152 8.78301
RightLeg  35.0972 1.346 1.14061
RightFoot  -13.4653 -0.159551 -3.48347
RightToes  -8.3237e-009 0 -3.6325e-017
Spine  6.03649 -4.08972 16.4182
Spine1  3.26572 -3.2095 6.75849
HEad  -9.54199 13.7494 -7.90676
LeftShoulder1  -0.26778 4.21788 -31.3772
LeftArm  3.74938 8.19088 -45.2724
LeftForeArm  21.4928 -26.14 -4.4636
LeftHand  -0.0263103 6.59447 1.07823
RightShoulder  -0.905429 -6.05969 28.8443
RightArm  20.5666 -9.40359 44.7857
RightForeArm  8.52357 19.426 4.77502
RightHand  -0.070441 4.56986 -1.14194
LeftUpLeg  1.82937 12.974 13.07
LeftLeg  25.1336 9.42567 5.20054
LeftFoot  -19.645 -25.3216 -141.894
LeftToes  -1.18267e-011 3.61711e-011 9.57411e-011
